# xmcd
#
# Track frame offsets:
#  150
#  12825
#  31210
#  49084
#  70259
#  88298
#  109104
#  127722
#  144874
#  161558
#  180736
#  200211
#  213258
#  231179
#  243738
#  263897
#
# Disc length: 3790 seconds
#
# Revision: 0
# Processed by: cddbd v1.5.1PL2 Copyright (c) Steve Scherf et al.
# Submitted via: Collectorz.com_Music_Collector 6.11
#
DISCID=e00ecc10
DTITLE=Psycho Zydeco - Get On Board
DYEAR=2006
DGENRE=Blues - Zydeco/Cajun
TTITLE0=Uncle Bud
TTITLE1=Stay In Or Stay Out - Pass The Dutchie
TTITLE2=Follow The Sun
TTITLE3=Zydeco Nights
TTITLE4=Cisco Kid
TTITLE5=Franky
TTITLE6=What's In That Bayou
TTITLE7=Hot Rod
TTITLE8=Surf Cowboy
TTITLE9=Get On Board
TTITLE10=Let The Good Times Roll
TTITLE11=When I Woke Up This Morning
TTITLE12=Oh Yeh Yal
TTITLE13=Stef's Boogie
TTITLE14=Johnny Can't Dance
TTITLE15=Pour Tout Quel Que'lin - Pretty Girl
EXTD=
EXTT0=
EXTT1=
EXTT2=
EXTT3=
EXTT4=
EXTT5=
EXTT6=
EXTT7=
EXTT8=
EXTT9=
EXTT10=
EXTT11=
EXTT12=
EXTT13=
EXTT14=
EXTT15=
PLAYORDER=
